<?xml version="1.0" encoding="UTF-8" standalone="no"?>
<svg
   xmlns:dc="http://purl.org/dc/elements/1.1/"
   xmlns:cc="http://creativecommons.org/ns#"
   xmlns:rdf="http://www.w3.org/1999/02/22-rdf-syntax-ns#"
   xmlns:svg="http://www.w3.org/2000/svg"
   xmlns="http://www.w3.org/2000/svg"
   viewBox="0 0 152 152"
   height="152"
   width="152"
   xml:space="preserve"
   id="svg2"
   version="1.1"><metadata
     id="metadata8"><rdf:RDF><cc:Work
         rdf:about=""><dc:format>image/svg+xml</dc:format><dc:type
           rdf:resource="http://purl.org/dc/dcmitype/StillImage" /></cc:Work></rdf:RDF></metadata><defs
     id="defs6"><clipPath
       id="clipPath20"
       clipPathUnits="userSpaceOnUse"><path
         id="path18"
         d="m 1140,570 c 0,-71.992 -13.35,-140.879 -37.7,-204.297 0,0 -605.82,-361.01159 -608.952,-360.59362 C 214.789,42.5508 0,281.191 0,570 c 0,314.801 255.195,570 570,570 314.801,0 570,-255.199 570,-570 z" /></clipPath><linearGradient
       id="linearGradient28"
       spreadMethod="pad"
       gradientTransform="matrix(771.347,-771.347,-771.347,-771.347,166.949,973.051)"
       gradientUnits="userSpaceOnUse"
       y2="0"
       x2="1"
       y1="0"
       x1="0"><stop
         id="stop22"
         offset="0"
         style="stop-opacity:1;stop-color:#6c28f5" /><stop
         id="stop24"
         offset="0.759538"
         style="stop-opacity:1;stop-color:#6c28f5" /><stop
         id="stop26"
         offset="1"
         style="stop-opacity:1;stop-color:#6c28f5" /></linearGradient></defs><g
     transform="matrix(1.3333333,0,0,-1.3333333,0,152)"
     id="g10"><g
       transform="scale(0.1)"
       id="g12"><g
         id="g14"><g
           clip-path="url(#clipPath20)"
           id="g16"><path
             id="path30"
             style="fill:url(#linearGradient28);fill-opacity:1;fill-rule:nonzero;stroke:none"
             d="m 1140,570 c 0,-71.992 -13.35,-140.879 -37.7,-204.297 0,0 -605.82,-361.01159 -608.952,-360.59362 C 214.789,42.5508 0,281.191 0,570 c 0,314.801 255.195,570 570,570 314.801,0 570,-255.199 570,-570" /></g></g><path
         id="path32"
         style="fill:#ffffff;fill-opacity:1;fill-rule:nonzero;stroke:none"
         d="M 1102.3,365.703 C 982.762,379.531 929.531,441.887 888.281,508.164 839.43,586.66 820.809,704.789 787.461,764.84 c 22.777,26.914 70.801,96.367 53.586,187.918 -17.43,92.682 -99.813,116.032 -134.774,109.442 -34.957,-6.59 -38.125,-33.73 -14.183,-61.81 26.344,-30.913 43.57,-86.644 42.558,-123.632 -0.765,-27.918 -9.5,-44.961 -16.171,-54.02 -46.664,22.223 -103.231,29.844 -130.586,27.742 15.054,22.583 20.722,61.75 15.843,78.438 -2.933,10.051 -11.375,7.121 -27.328,-10.695 -10.082,-11.258 -32.176,-30.118 -69.828,-55.356 -21.527,-14.433 -39.242,-25.793 -65.922,-41.637 -55.504,-32.964 -86.004,-59.992 -86.004,-59.992 0,0 -28.879,10.641 -25.336,80.563 4.188,82.48 74.551,172.259 10.137,179.359 C 279.664,1027.74 222.414,960.355 207.215,879.293 192.012,798.227 232.738,739.762 285.234,706.949 272.93,661.016 260.016,532.969 305.738,358.352 350.383,187.859 418.656,80.5 493.402,5.10938 518.453,1.73828 544.023,0 570,0 c 242.801,0 450.14,151.809 532.29,365.691 l 0.01,0.012" /><path
         id="path34"
         style="fill:#000000;fill-opacity:1;fill-rule:nonzero;stroke:none"
         d="m 419.063,538.555 c -3.649,-31.211 -24.219,-54.446 -45.942,-51.907 -21.723,2.543 -36.379,29.895 -32.73,61.106 3.648,31.207 24.214,54.449 45.945,51.91 21.723,-2.539 36.375,-29.898 32.727,-61.109" /><path
         id="path36"
         style="fill:#000000;fill-opacity:1;fill-rule:nonzero;stroke:none"
         d="m 794.527,605.902 c 8.223,-30.32 -2.222,-59.547 -23.336,-65.265 -21.105,-5.735 -44.886,14.218 -53.109,44.539 -8.227,30.32 2.223,59.547 23.328,65.273 21.113,5.723 44.895,-14.219 53.117,-44.547" /><path
         id="path38"
         style="fill:#dcd2fa;fill-opacity:1;fill-rule:nonzero;stroke:none"
         d="m 696.984,477.922 c 9.977,-81.25 -33.472,-142.043 -95.336,-149.629 -61.871,-7.602 -118.734,40.867 -128.71,122.117 -9.977,81.262 32.085,153.285 93.957,160.883 61.871,7.598 120.113,-52.113 130.089,-133.371" /><path
         id="path40"
         style="fill:#000000;fill-opacity:1;fill-rule:nonzero;stroke:none"
         d="m 661.242,481.941 c -0.433,-3.281 -14.859,-33.933 -41.722,-29.16 -26.973,4.797 -28.223,39.297 -28.707,45.918 6.179,4.199 16.152,11.692 24.476,21.496 11.055,13.008 7.203,27.141 -5.019,26.231 -11.196,-0.821 -25.004,-17.688 -31.93,-28.36 -9.297,8.68 -26.774,21.7 -37.84,19.793 -12.074,-2.078 -12.395,-16.714 1.48,-26.668 10.45,-7.5 21.938,-12.343 28.95,-14.929 1.133,-6.543 8.265,-40.324 -16.742,-51.504 -24.915,-11.137 -46.325,15.125 -47.547,18.203 -3.926,-8.254 3.136,-29.106 21.047,-38.344 16.515,-8.523 45.855,-4.59 56.285,18.496 1.058,2.356 1.929,4.692 2.715,7.016 1.316,-2.07 2.726,-4.121 4.324,-6.145 15.707,-19.882 45.129,-16.601 59.093,-4.336 15.133,13.301 16.946,35.235 11.137,42.293" /><path
         id="path42"
         style="fill:#ffffff;fill-opacity:1;fill-rule:nonzero;stroke:none"
         d="m 1345.51,352.805 h 90.07 V 719.23 h -90.07 z m 147.85,0 h 90.07 V 719.23 h -90.07 z m 324.18,91.179 c -10.8,-11.543 -24.55,-17.39 -40.88,-17.39 -16.99,0 -30.99,5.769 -41.62,17.129 -10.54,11.265 -15.88,27.09 -15.88,47 0,19.57 5.34,35.207 15.88,46.472 10.63,11.379 24.63,17.141 41.62,17.141 16.32,0 30.07,-5.852 40.88,-17.383 10.7,-11.457 16.13,-27.012 16.13,-46.23 0,-19.578 -5.43,-35.301 -16.13,-46.739 z m 16.13,127.856 c 0,0 -3.42,8.203 -8.95,15.918 -9.79,13.625 -17.76,23.574 -31.55,31.656 -13.87,8.149 -30.56,12.277 -49.58,12.277 -21.65,0 -41.45,-5.636 -58.84,-16.757 -17.42,-11.125 -31.36,-27.457 -41.41,-48.532 -10.14,-21.273 -15.28,-46.734 -15.28,-75.679 0,-28.965 5.14,-54.512 15.29,-75.938 10.05,-21.25 23.98,-37.656 41.4,-48.777 17.4,-11.137 37.19,-16.778 58.84,-16.778 18.99,0 35.68,4.137 49.58,12.293 13.78,8.067 22.41,18.645 30.6,31.29 7,10.82 9.9,18.515 9.9,18.515 v -58.523 h 89.57 v 275.324 h -89.57 z m 517.42,58.836 c -19.31,0 -37.09,-4.801 -52.85,-14.274 -15.82,-9.531 -28.57,-22.386 -37.94,-38.187 l -4.67,-7.899 -4.22,8.129 c -8.67,16.692 -20.86,29.696 -36.22,38.668 -15.43,9 -33.57,13.563 -53.93,13.563 -18.69,0 -35.14,-3.965 -48.89,-11.789 -13.73,-7.84 -24.57,-18.59 -32.19,-31.957 l -9.51,-16.641 v 57.84 H 1980.6 V 352.805 h 90.07 v 146.558 c 0,17.285 4.87,30.918 14.47,40.5 9.6,9.602 22.7,14.473 38.96,14.473 15.58,0 28.26,-4.785 37.71,-14.219 9.43,-9.453 14.21,-22.644 14.21,-39.219 V 352.805 h 89.57 v 146.558 c 0,17.27 4.86,30.903 14.46,40.5 9.61,9.602 22.72,14.473 38.97,14.473 15.59,0 28.27,-4.785 37.7,-14.219 9.43,-9.441 14.21,-22.637 14.21,-39.219 V 352.805 h 89.57 v 160.816 c 0,36.477 -9.73,65.445 -28.92,86.109 -19.09,20.54 -46.18,30.946 -80.49,30.946 z m 163.45,-277.871 h 90.08 v 275.324 h -90.08 z m 485.17,275.336 -57.91,-162.633 -57.9,162.633 -117.78,-0.012 0.52,5.566 c 1.14,12.18 4.99,21.125 11.46,26.578 6.35,5.352 16.19,8.063 29.23,8.063 2.08,0 3.94,-0.031 5.61,-0.098 v 74.742 c -6.9,0.442 -12.21,0.672 -15.78,0.672 -39.19,0 -69.53,-9.73 -90.18,-28.918 -20.53,-19.082 -30.94,-46.507 -30.94,-81.515 v -5.09 h -32.58 v -73.285 h 32.58 V 352.805 h 90.06 v 202.039 h 50.32 l 83.5,-197.168 -49.42,-123.836 h 89.41 l 156.59,394.301 z m -439.36,130.273 c -16.29,0 -29.53,-4.445 -39.36,-13.211 -9.82,-8.738 -14.58,-19.562 -14.58,-33.098 0,-12.851 4.75,-23.253 14.54,-31.792 9.85,-8.629 23.1,-12.997 39.4,-12.997 15.93,0 28.93,4.36 38.61,12.957 9.63,8.571 14.32,18.981 14.32,31.832 0,13.555 -4.63,24.399 -14.15,33.161 -9.48,8.722 -22.54,13.148 -38.78,13.148" /></g></g></svg>