<svg xmlns="http://www.w3.org/2000/svg" width="15" height="18" viewBox="0 0 15 18" fill="#7333f5" role="img" class="icon share-icon show-on-ios">
<path d="M7.50394 11.7554C7.8431 11.7554 8.12704 11.4683 8.12704 11.1334V2.94284L8.07972 1.74657L8.60817 2.3128L9.80704 3.60478C9.91746 3.73239 10.0831 3.79619 10.233 3.79619C10.5563 3.79619 10.8087 3.55693 10.8087 3.22995C10.8087 3.06247 10.7377 2.93487 10.6194 2.81524L7.95352 0.21533C7.79577 0.0558263 7.66169 0 7.50394 0C7.33831 0 7.20423 0.0558263 7.04648 0.21533L4.38056 2.81524C4.26225 2.93487 4.19127 3.06247 4.19127 3.22995C4.19127 3.55693 4.42789 3.79619 4.75915 3.79619C4.90901 3.79619 5.08254 3.73239 5.19296 3.60478L6.39183 2.3128L6.92028 1.74657L6.87296 2.94284V11.1334C6.87296 11.4683 7.16479 11.7554 7.50394 11.7554ZM2.97662 18H12.0234C13.6718 18 14.5 17.1706 14.5 15.5277V7.56845C14.5 5.92556 13.6718 5.09615 12.0234 5.09615H9.82282V6.38015H11.9997C12.7806 6.38015 13.2301 6.81081 13.2301 7.64023V15.4559C13.2301 16.2853 12.7806 16.716 11.9997 16.716H2.99239C2.20366 16.716 1.76986 16.2853 1.76986 15.4559V7.64023C1.76986 6.81081 2.20366 6.38015 2.99239 6.38015H5.17718V5.09615H2.97662C1.32817 5.09615 0.5 5.92556 0.5 7.56845V15.5277C0.5 17.1706 1.32817 18 2.97662 18Z"></path>
</svg>